<svg xmlns="http://www.w3.org/2000/svg" viewBox="0 0 463.45 463.45"><defs><style>.cls-1{fill:#82ccb5;}.cls-2{fill:#231f20;opacity:0.28;}.cls-3{fill:#fff;}</style></defs><g id="Layer_2" data-name="Layer 2"><g id="Layer_1-2" data-name="Layer 1"><path class="cls-1" d="M463.45,41.38V422.07a41.38,41.38,0,0,1-41.38,41.38H41.38A41.38,41.38,0,0,1,0,422.07V41.38A41.38,41.38,0,0,1,41.38,0H422.07a41.37,41.37,0,0,1,41.38,41.38Z"/><path class="cls-2" d="M463.45,41.38V422.07a41.38,41.38,0,0,1-41.38,41.38H41.38A41.38,41.38,0,0,1,0,422.07V398.74c39.52-45,90.09-92.5,145.61-139.62q5.2-4.42,10.47-8.83,13.13-11,26.57-22,14.16-11.55,28.57-23C294.61,139,383.31,75.77,459.54,23.81A41.26,41.26,0,0,1,463.45,41.38Z"/><path class="cls-3" d="M169.84,255.74a19.66,19.66,0,0,1-13.76-5.45c-3.56-3.38-6.21-8.33-7.38-14.75-2.53-13.81-5.33-28.08-8.49-42-1.34-5.92-2.74-11.78-4.22-17.53l-.8-.53a166.34,166.34,0,0,0-9.51,13.78q.87,3.16,1.7,6.2c5.44,19.89,9.41,35.32,9.41,43.58,0,3.21-3.75,7.22-8.7,10-6.29,3.61-14.72,6.69-21.81,6.69-12.84,0-18.33-6.82-18.87-17.93l-5.21.4c-.27,3.35-.41,6.56-.41,9.9,0,15.66,8.3,24.76,23.29,24.76,9,0,18.06-3.61,26.89-9,5.76-3.47,8.57-7.76,9.64-12.84h.67a45.72,45.72,0,0,0,3.33,8.06c5.64,10.36,14.13,13.75,24,13.75h2.55V255.74Z"/><path class="cls-3" d="M290.94,255.74c-13.79,0-23.15-4.15-23.69-15.52l-.4-.13L262,243.3a69.61,69.61,0,0,0-.4,7.49c0,16.06,11.51,22.08,28.77,22.08h4.15V255.74Zm-69.85,37.07c-3.62,4.15-7.23,8.83-10.84,13.65,5.35,4.55,10.57,8.83,15.79,13.78a54.09,54.09,0,0,0,11.1-13.11A120.88,120.88,0,0,0,221.09,292.81ZM290,221.22H278.36a63.14,63.14,0,0,1-22.88-4.42c-21.15-8.43-34.93-11.5-43.89-11.5h-.37c-15.49.13-27,8.89-28.57,23,0,.35-.07.71-.1,1.07L189.11,247h1.33l4-12-1.61-6.69c3.75-4.28,9.37-6.69,17-6.69,12.31,0,26.49,3.61,42,9.37l-.13.53c-27.57,16.59-49.78,24.22-71.46,24.22h-8.16c-7.22,0-9.37,4.95-9.37,8.16,0,3.62,2,9,9.37,9h6.16c21.67,0,40.14-6,58.74-17.93l22.35-14.59c4.41-2.81,11.9-5.08,22.61-5.08l8.3-13.78Z"/><path class="cls-3" d="M322.11,298.16c-3.62,4.15-7.23,8.83-10.84,13.65,5.35,4.55,10.57,8.83,15.79,13.78a53.9,53.9,0,0,0,11.1-13.11A120.25,120.25,0,0,0,322.11,298.16Zm6-99h-.67a106.61,106.61,0,0,0-10,15.12c7,13.65,13.38,26.76,13.38,33.05,0,2.28-2.94,4.15-7.62,5.89-5.89,2.14-15,2.54-26.36,2.54h-2.28c-7.22,0-9.37,4.95-9.37,8.16,0,3.62,2,9,9.37,9h1.61c20.47,0,30-2,36-8,5.35-7.09,9.37-14.85,9.37-24.89C341.51,226.71,334.28,210,328.13,199.14Z"/><path class="cls-3" d="M378.17,138.26l-1.2-.41A122.19,122.19,0,0,0,363.85,152c2.14,23.15,4.82,58.74,4.82,83.23v13.11c0,8.83-.13,18.33-1.47,26.76l1.74.94c7.76-8.56,11.37-14.18,11.77-21.54a211.47,211.47,0,0,0,.94-22.08C381.65,201.28,381,167.43,378.17,138.26Z"/></g></g></svg>